<svg id="Group_2" data-name="Group 2" xmlns="http://www.w3.org/2000/svg" viewBox="30.794 33.98 205.935 50.438">
  <defs>
    <style>
      .cls-1, .cls-2, .cls-3 {
        fill: #fff;
      }

      .cls-1 {
        opacity: 0.58;
      }

      .cls-3 {
        opacity: 0.58;
      }

      .cls-4 {
        stroke: rgba(0,0,0,0);
      }
    </style>
  </defs>
  <path id="Path_27" data-name="Path 27" d="M2.44.5H48.995a1.94,1.94,0,0,1,1.94,1.94V49a1.94,1.94,0,0,1-1.94,1.94H2.44A1.94,1.94,0,0,1,.5,49V2.44A1.94,1.94,0,0,1,2.44.5Z" transform="translate(30.294 33.48)"/>
  <path id="Path_28" data-name="Path 28" class="cls-1" d="M.5.5H32.02V3.437H.5Z" transform="translate(40.241 41.204)"/>
  <path id="Path_29" data-name="Path 29" class="cls-1" d="M0,0H31.521V2.937H0Z" transform="translate(52.675 41.792) rotate(90)"/>
  <path id="Path_30" data-name="Path 30" class="cls-1" d="M0,0H31.521V2.937H0Z" transform="translate(42.159 43.438) rotate(90)"/>
  <path id="Path_31" data-name="Path 31" class="cls-1" d="M.5.5H32.02V3.437H.5Z" transform="translate(40.67 73.9)"/>
  <path id="Path_32" data-name="Path 32" class="cls-1" d="M.5.5H13.49V3.437H.5Z" transform="translate(40.241 51.792)"/>
  <path id="Path_33" data-name="Path 33" class="cls-1" d="M.5.5H13.49V3.437H.5Z" transform="translate(40.241 63.311)"/>
  <path id="Path_34" data-name="Path 34" class="cls-2" d="M17.489,104.9h0Z" transform="translate(35.153 -48.719)"/>
  <path id="Path_35" data-name="Path 35" class="cls-2" d="M17.489,104.9h0Z" transform="translate(59.328 -48.719)"/>
  <path id="Path_36" data-name="Path 36" class="cls-2" d="M4.122,0A4.122,4.122,0,1,1,0,4.122,4.122,4.122,0,0,1,4.122,0Z" transform="translate(36.553 38.719)"/>
  <path id="Path_37" data-name="Path 37" class="cls-2" d="M4.122,0A4.122,4.122,0,1,1,0,4.122,4.122,4.122,0,0,1,4.122,0Z" transform="translate(36.982 71.416)"/>
  <path id="Path_38" data-name="Path 38" class="cls-2" d="M4.122,0A4.122,4.122,0,1,1,0,4.122,4.122,4.122,0,0,1,4.122,0Z" transform="translate(36.553 49.308)"/>
  <path id="Path_39" data-name="Path 39" class="cls-2" d="M4.122,0A4.122,4.122,0,1,1,0,4.122,4.122,4.122,0,0,1,4.122,0Z" transform="translate(36.553 60.827)"/>
  <path id="Path_40" data-name="Path 40" class="cls-2" d="M4.122,0A4.122,4.122,0,1,1,0,4.122,4.122,4.122,0,0,1,4.122,0Z" transform="translate(47.083 38.719)"/>
  <path id="Path_41" data-name="Path 41" class="cls-2" d="M4.122,0A4.122,4.122,0,1,1,0,4.122,4.122,4.122,0,0,1,4.122,0Z" transform="translate(47.513 71.416)"/>
  <path id="Path_42" data-name="Path 42" class="cls-2" d="M4.122,0A4.122,4.122,0,1,1,0,4.122,4.122,4.122,0,0,1,4.122,0Z" transform="translate(47.083 49.308)"/>
  <path id="Path_43" data-name="Path 43" class="cls-2" d="M4.122,0A4.122,4.122,0,1,1,0,4.122,4.122,4.122,0,0,1,4.122,0Z" transform="translate(47.083 60.827)"/>
  <path id="Path_44" data-name="Path 44" class="cls-2" d="M4.122,0A4.122,4.122,0,1,1,0,4.122,4.122,4.122,0,0,1,4.122,0Z" transform="translate(57.614 38.719)"/>
  <path id="Path_45" data-name="Path 45" class="cls-2" d="M4.122,0A4.122,4.122,0,1,1,0,4.122,4.122,4.122,0,0,1,4.122,0Z" transform="translate(58.043 71.416)"/>
  <path id="Path_46" data-name="Path 46" class="cls-3" d="M4.122,0A4.122,4.122,0,1,1,0,4.122,4.122,4.122,0,0,1,4.122,0Z" transform="translate(57.614 49.308)"/>
  <path id="Path_47" data-name="Path 47" class="cls-3" d="M4.122,0A4.122,4.122,0,1,1,0,4.122,4.122,4.122,0,0,1,4.122,0Z" transform="translate(57.614 60.827)"/>
  <path id="Path_48" data-name="Path 48" class="cls-2" d="M4.122,0A4.122,4.122,0,1,1,0,4.122,4.122,4.122,0,0,1,4.122,0Z" transform="translate(68.144 38.719)"/>
  <path id="Path_49" data-name="Path 49" class="cls-2" d="M4.122,0A4.122,4.122,0,1,1,0,4.122,4.122,4.122,0,0,1,4.122,0Z" transform="translate(68.573 71.416)"/>
  <path id="Path_50" data-name="Path 50" class="cls-3" d="M4.122,0A4.122,4.122,0,1,1,0,4.122,4.122,4.122,0,0,1,4.122,0Z" transform="translate(68.144 49.308)"/>
  <path id="Path_51" data-name="Path 51" class="cls-3" d="M4.122,0A4.122,4.122,0,1,1,0,4.122,4.122,4.122,0,0,1,4.122,0Z" transform="translate(68.144 60.827)"/>
  <path id="Path_52" data-name="Path 52" class="cls-4" d="M61.552-561.152a9.052,9.052,0,0,0-4.126.9,8.252,8.252,0,0,0-3.013,2.594,12.2,12.2,0,0,0-1.847,4.113,21.67,21.67,0,0,0-.629,5.437,23.813,23.813,0,0,0,.563,5.45,11.37,11.37,0,0,0,1.729,4.022,7.515,7.515,0,0,0,2.987,2.489,10.16,10.16,0,0,0,4.336.852,21.388,21.388,0,0,0,4.677-.524,44.983,44.983,0,0,0,5.1-1.493v6.812a25.15,25.15,0,0,1-2.489.891,24,24,0,0,1-2.515.6q-1.284.236-2.633.354t-2.9.118a19.117,19.117,0,0,1-7.676-1.415,14.193,14.193,0,0,1-5.371-3.982,16.692,16.692,0,0,1-3.144-6.183,29.544,29.544,0,0,1-1.022-8.044,25.7,25.7,0,0,1,1.179-7.978,17.745,17.745,0,0,1,3.458-6.249,15.541,15.541,0,0,1,5.633-4.074,19.2,19.2,0,0,1,7.7-1.454,23.424,23.424,0,0,1,5.725.721,28.921,28.921,0,0,1,5.489,1.978l-2.62,6.6a43.391,43.391,0,0,0-4.323-1.782A12.9,12.9,0,0,0,61.552-561.152Zm29.573,32.1-1.546-3.983h-.236a16.726,16.726,0,0,1-1.729,2.031,8.272,8.272,0,0,1-1.886,1.4,8.376,8.376,0,0,1-2.292.812,14.724,14.724,0,0,1-2.947.262,9.422,9.422,0,0,1-3.3-.563,7.066,7.066,0,0,1-2.633-1.7,7.885,7.885,0,0,1-1.742-2.882,12.168,12.168,0,0,1-.629-4.127q0-4.664,2.987-6.878t8.934-2.45l4.663-.157v-2.2a3.266,3.266,0,0,0-1.048-2.672,4.487,4.487,0,0,0-2.934-.865,12.49,12.49,0,0,0-3.681.55,22.628,22.628,0,0,0-3.6,1.467L74.907-556.3a20.872,20.872,0,0,1,4.873-1.939,21.821,21.821,0,0,1,5.607-.707q5.476,0,8.4,2.568t2.921,7.808v19.519Zm-2.358-13.572-2.646.1a9.61,9.61,0,0,0-2.7.419,4.822,4.822,0,0,0-1.768.983,3.6,3.6,0,0,0-.969,1.467,5.666,5.666,0,0,0-.3,1.9,3.3,3.3,0,0,0,.891,2.607,3.431,3.431,0,0,0,2.332.773,5.418,5.418,0,0,0,2.044-.38,4.509,4.509,0,0,0,1.637-1.127,5.3,5.3,0,0,0,1.087-1.834,7.342,7.342,0,0,0,.393-2.5Zm26.848,14.1a9.713,9.713,0,0,1-2.581-.314,8.384,8.384,0,0,1-2.03-.838,8.087,8.087,0,0,1-1.572-1.192,12.3,12.3,0,0,1-1.231-1.4h-.419q.1.917.21,1.729.079.681.144,1.4t.065,1.114v5.685H100.21v-36h6.5l1.127,3.8h.367a11.674,11.674,0,0,1,1.258-1.677A7.825,7.825,0,0,1,111.1-557.6a8.456,8.456,0,0,1,2.109-.943,9.1,9.1,0,0,1,2.62-.354,8.82,8.82,0,0,1,4.139.969,8.934,8.934,0,0,1,3.2,2.882,14.635,14.635,0,0,1,2.07,4.742,26.235,26.235,0,0,1,.734,6.55,25.644,25.644,0,0,1-.76,6.589,14.645,14.645,0,0,1-2.135,4.769,9.111,9.111,0,0,1-3.275,2.9A9.058,9.058,0,0,1,115.615-528.532Zm-2.489-23.974a4.855,4.855,0,0,0-2.266.485,3.761,3.761,0,0,0-1.506,1.454,7.26,7.26,0,0,0-.838,2.45,23.6,23.6,0,0,0-.314,3.445v.865a25.529,25.529,0,0,0,.249,3.773,8.913,8.913,0,0,0,.825,2.764,4.129,4.129,0,0,0,1.533,1.69,4.52,4.52,0,0,0,2.371.576,3.672,3.672,0,0,0,3.5-2.266,15.394,15.394,0,0,0,1.113-6.59,14.663,14.663,0,0,0-1.113-6.485A3.725,3.725,0,0,0,113.126-552.505Zm30.385,23.974a9.713,9.713,0,0,1-2.581-.314,8.384,8.384,0,0,1-2.03-.838,8.087,8.087,0,0,1-1.572-1.192,12.3,12.3,0,0,1-1.231-1.4h-.419q.1.917.21,1.729.079.681.144,1.4t.066,1.114v5.685h-7.991v-36h6.5l1.127,3.8h.367a11.675,11.675,0,0,1,1.258-1.677,7.826,7.826,0,0,1,1.637-1.375,8.457,8.457,0,0,1,2.109-.943,9.1,9.1,0,0,1,2.62-.354,8.82,8.82,0,0,1,4.139.969,8.934,8.934,0,0,1,3.2,2.882,14.634,14.634,0,0,1,2.07,4.742,26.235,26.235,0,0,1,.734,6.55,25.645,25.645,0,0,1-.76,6.589,14.645,14.645,0,0,1-2.135,4.769,9.111,9.111,0,0,1-3.275,2.9A9.058,9.058,0,0,1,143.511-528.532Zm-2.489-23.974a4.855,4.855,0,0,0-2.266.485,3.761,3.761,0,0,0-1.506,1.454,7.26,7.26,0,0,0-.838,2.45,23.6,23.6,0,0,0-.314,3.445v.865a25.53,25.53,0,0,0,.249,3.773,8.913,8.913,0,0,0,.825,2.764,4.129,4.129,0,0,0,1.533,1.69,4.52,4.52,0,0,0,2.371.576,3.672,3.672,0,0,0,3.5-2.266,15.394,15.394,0,0,0,1.113-6.59,14.662,14.662,0,0,0-1.113-6.485A3.725,3.725,0,0,0,141.022-552.505Zm34.132,23.45L174.08-532.8h-.419a7.731,7.731,0,0,1-1.559,1.926,8.8,8.8,0,0,1-1.978,1.323,9.612,9.612,0,0,1-2.279.773,12.147,12.147,0,0,1-2.463.249,11.735,11.735,0,0,1-3.9-.616,7.6,7.6,0,0,1-3.013-1.926,8.772,8.772,0,0,1-1.939-3.327,15.23,15.23,0,0,1-.681-4.847v-19.1h7.991v17.109a9.388,9.388,0,0,0,.956,4.756,3.3,3.3,0,0,0,3.052,1.585,5.017,5.017,0,0,0,2.62-.629,4.388,4.388,0,0,0,1.664-1.86,10.023,10.023,0,0,0,.878-3.039,29.132,29.132,0,0,0,.262-4.14v-13.782h7.991v29.292Zm9.426-36.865a4.519,4.519,0,0,1,.341-1.873,3.152,3.152,0,0,1,.93-1.205,3.506,3.506,0,0,1,1.389-.642,7.533,7.533,0,0,1,1.69-.183,7.361,7.361,0,0,1,1.677.183,3.507,3.507,0,0,1,1.375.642,3.268,3.268,0,0,1,.943,1.205,4.372,4.372,0,0,1,.354,1.873,4.392,4.392,0,0,1-.354,1.86,3.243,3.243,0,0,1-.943,1.218,3.651,3.651,0,0,1-1.375.655,6.9,6.9,0,0,1-1.677.2,7.059,7.059,0,0,1-1.69-.2,3.648,3.648,0,0,1-1.389-.655,3.131,3.131,0,0,1-.93-1.218A4.539,4.539,0,0,1,184.58-565.92Zm8.331,36.865H184.92v-29.292h7.991Z" transform="translate(42.951 605.282)"/>
</svg>
