<svg xmlns="http://www.w3.org/2000/svg" viewBox="461.794 -226.02 622.983 152.83">
  <defs>
    <style>
      .cls-1, .cls-5 {
        fill: #fff;
      }

      .cls-2, .cls-3, .cls-4 {
        fill: #2010a0;
      }

      .cls-2 {
        opacity: 0.58;
      }

      .cls-4 {
        opacity: 0.58;
      }

      .cls-5 {
        stroke: rgba(0,0,0,0);
      }
    </style>
  </defs>
  <g id="Group_1" data-name="Group 1" transform="translate(367 -474)">
    <path id="Path_1" data-name="Path 1" class="cls-1" d="M6.378.5H147.443a5.878,5.878,0,0,1,5.878,5.878V147.452a5.878,5.878,0,0,1-5.878,5.878H6.378A5.878,5.878,0,0,1,.5,147.452V6.378A5.878,5.878,0,0,1,6.378.5Z" transform="translate(94.294 247.48)"/>
    <path id="Path_2" data-name="Path 2" class="cls-2" d="M.5.5H96.007V9.4H.5Z" transform="translate(124.433 270.884)"/>
    <path id="Path_3" data-name="Path 3" class="cls-2" d="M0,0H95.512V8.9H0Z" transform="translate(161.095 271.652) rotate(90)"/>
    <path id="Path_4" data-name="Path 4" class="cls-2" d="M0,0H95.512V8.9H0Z" transform="translate(129.229 276.638) rotate(90)"/>
    <path id="Path_5" data-name="Path 5" class="cls-2" d="M.5.5H96.007V9.4H.5Z" transform="translate(125.734 369.956)"/>
    <path id="Path_6" data-name="Path 6" class="cls-2" d="M.5.5H39.862V9.4H.5Z" transform="translate(124.433 302.968)"/>
    <path id="Path_7" data-name="Path 7" class="cls-2" d="M.5.5H39.862V9.4H.5Z" transform="translate(124.433 337.871)"/>
    <path id="Path_8" data-name="Path 8" class="cls-3" d="M52.992,104.9h0Z" transform="translate(108.002 210.343)"/>
    <path id="Path_9" data-name="Path 9" class="cls-3" d="M52.992,104.9h0Z" transform="translate(181.255 210.343)"/>
    <path id="Path_10" data-name="Path 10" class="cls-3" d="M12.49,0A12.49,12.49,0,1,1,0,12.49,12.49,12.49,0,0,1,12.49,0Z" transform="translate(112.244 262.341)"/>
    <path id="Path_11" data-name="Path 11" class="cls-3" d="M12.49,0A12.49,12.49,0,1,1,0,12.49,12.49,12.49,0,0,1,12.49,0Z" transform="translate(113.545 361.413)"/>
    <path id="Path_12" data-name="Path 12" class="cls-3" d="M12.49,0A12.49,12.49,0,1,1,0,12.49,12.49,12.49,0,0,1,12.49,0Z" transform="translate(112.244 294.425)"/>
    <path id="Path_13" data-name="Path 13" class="cls-3" d="M12.49,0A12.49,12.49,0,1,1,0,12.49,12.49,12.49,0,0,1,12.49,0Z" transform="translate(112.244 329.328)"/>
    <path id="Path_14" data-name="Path 14" class="cls-3" d="M12.49,0A12.49,12.49,0,1,1,0,12.49,12.49,12.49,0,0,1,12.49,0Z" transform="translate(144.152 262.341)"/>
    <path id="Path_15" data-name="Path 15" class="cls-3" d="M12.49,0A12.49,12.49,0,1,1,0,12.49,12.49,12.49,0,0,1,12.49,0Z" transform="translate(145.453 361.413)"/>
    <path id="Path_16" data-name="Path 16" class="cls-3" d="M12.49,0A12.49,12.49,0,1,1,0,12.49,12.49,12.49,0,0,1,12.49,0Z" transform="translate(144.152 294.425)"/>
    <path id="Path_17" data-name="Path 17" class="cls-3" d="M12.49,0A12.49,12.49,0,1,1,0,12.49,12.49,12.49,0,0,1,12.49,0Z" transform="translate(144.152 329.328)"/>
    <path id="Path_18" data-name="Path 18" class="cls-3" d="M12.49,0A12.49,12.49,0,1,1,0,12.49,12.49,12.49,0,0,1,12.49,0Z" transform="translate(176.06 262.341)"/>
    <path id="Path_19" data-name="Path 19" class="cls-3" d="M12.49,0A12.49,12.49,0,1,1,0,12.49,12.49,12.49,0,0,1,12.49,0Z" transform="translate(177.361 361.413)"/>
    <path id="Path_20" data-name="Path 20" class="cls-4" d="M12.49,0A12.49,12.49,0,1,1,0,12.49,12.49,12.49,0,0,1,12.49,0Z" transform="translate(176.06 294.425)"/>
    <path id="Path_21" data-name="Path 21" class="cls-4" d="M12.49,0A12.49,12.49,0,1,1,0,12.49,12.49,12.49,0,0,1,12.49,0Z" transform="translate(176.06 329.328)"/>
    <path id="Path_22" data-name="Path 22" class="cls-3" d="M12.49,0A12.49,12.49,0,1,1,0,12.49,12.49,12.49,0,0,1,12.49,0Z" transform="translate(207.968 262.341)"/>
    <path id="Path_23" data-name="Path 23" class="cls-3" d="M12.49,0A12.49,12.49,0,1,1,0,12.49,12.49,12.49,0,0,1,12.49,0Z" transform="translate(209.268 361.413)"/>
    <path id="Path_24" data-name="Path 24" class="cls-4" d="M12.49,0A12.49,12.49,0,1,1,0,12.49,12.49,12.49,0,0,1,12.49,0Z" transform="translate(207.968 294.425)"/>
    <path id="Path_25" data-name="Path 25" class="cls-4" d="M12.49,0A12.49,12.49,0,1,1,0,12.49,12.49,12.49,0,0,1,12.49,0Z" transform="translate(207.968 329.328)"/>
    <path id="Path_26" data-name="Path 26" class="cls-5" d="M98.037-543.546a27.429,27.429,0,0,0-12.5,2.739,25.006,25.006,0,0,0-9.129,7.86,36.982,36.982,0,0,0-5.6,12.464A65.662,65.662,0,0,0,68.9-504.01,72.155,72.155,0,0,0,70.61-487.5a34.452,34.452,0,0,0,5.239,12.186,22.773,22.773,0,0,0,9.05,7.542,30.787,30.787,0,0,0,13.138,2.58,64.8,64.8,0,0,0,14.17-1.588,136.28,136.28,0,0,0,15.44-4.525v20.641a76.135,76.135,0,0,1-7.542,2.7,72.716,72.716,0,0,1-7.621,1.826q-3.89.714-7.978,1.072t-8.772.357q-13.416,0-23.26-4.287A43.007,43.007,0,0,1,56.2-461.06,50.577,50.577,0,0,1,46.675-479.8a89.519,89.519,0,0,1-3.1-24.373,77.886,77.886,0,0,1,3.572-24.174A53.768,53.768,0,0,1,57.63-547.277,47.094,47.094,0,0,1,74.7-559.623a58.185,58.185,0,0,1,23.339-4.406,70.975,70.975,0,0,1,17.346,2.184,87.636,87.636,0,0,1,16.631,5.994l-7.939,20.006a131.464,131.464,0,0,0-13.1-5.4A39.071,39.071,0,0,0,98.037-543.546Zm89.608,97.253-4.684-12.068h-.714a50.7,50.7,0,0,1-5.239,6.153,25.059,25.059,0,0,1-5.716,4.247,25.376,25.376,0,0,1-6.946,2.461,44.614,44.614,0,0,1-8.931.794,28.551,28.551,0,0,1-10-1.707,21.412,21.412,0,0,1-7.978-5.16,23.893,23.893,0,0,1-5.279-8.733,36.87,36.87,0,0,1-1.905-12.5q0-14.131,9.05-20.84t27.07-7.423l14.131-.477v-6.669q0-5.478-3.175-8.1t-8.891-2.62a37.845,37.845,0,0,0-11.154,1.667,68.569,68.569,0,0,0-10.915,4.446l-7.859-16.037a63.247,63.247,0,0,1,14.766-5.875,66.124,66.124,0,0,1,16.989-2.143q16.592,0,25.443,7.78t8.851,23.658v59.145ZM180.5-487.417l-8.018.318a29.123,29.123,0,0,0-8.177,1.27,14.611,14.611,0,0,0-5.359,2.977,10.911,10.911,0,0,0-2.937,4.446,17.169,17.169,0,0,0-.913,5.756q0,5.557,2.7,7.9a10.4,10.4,0,0,0,7.065,2.342,16.417,16.417,0,0,0,6.192-1.151,13.666,13.666,0,0,0,4.962-3.414,16.06,16.06,0,0,0,3.295-5.557,22.247,22.247,0,0,0,1.191-7.582Zm81.352,42.712a29.434,29.434,0,0,1-7.819-.953,25.4,25.4,0,0,1-6.152-2.54,24.5,24.5,0,0,1-4.763-3.613,37.288,37.288,0,0,1-3.731-4.247h-1.27q.318,2.779.635,5.24.238,2.064.437,4.247t.2,3.374v17.228H215.175V-535.052h19.688l3.414,11.512h1.111a35.374,35.374,0,0,1,3.811-5.081,23.708,23.708,0,0,1,4.962-4.168,25.621,25.621,0,0,1,6.391-2.858,27.558,27.558,0,0,1,7.939-1.072,26.726,26.726,0,0,1,12.543,2.937,27.07,27.07,0,0,1,9.685,8.733,44.34,44.34,0,0,1,6.271,14.37,79.494,79.494,0,0,1,2.223,19.847,77.7,77.7,0,0,1-2.3,19.967,44.375,44.375,0,0,1-6.47,14.449,27.6,27.6,0,0,1-9.923,8.772A27.444,27.444,0,0,1,261.853-444.705Zm-7.542-72.642a14.712,14.712,0,0,0-6.867,1.469,11.4,11.4,0,0,0-4.565,4.406,22,22,0,0,0-2.54,7.423,71.522,71.522,0,0,0-.953,10.44v2.62a77.357,77.357,0,0,0,.754,11.432,27.007,27.007,0,0,0,2.5,8.376,12.511,12.511,0,0,0,4.644,5.121,13.7,13.7,0,0,0,7.184,1.746q7.224,0,10.6-6.867t3.374-19.967q0-13.1-3.374-19.649A11.287,11.287,0,0,0,254.311-517.347Zm92.069,72.642a29.434,29.434,0,0,1-7.819-.953,25.4,25.4,0,0,1-6.152-2.54,24.5,24.5,0,0,1-4.763-3.613,37.284,37.284,0,0,1-3.731-4.247h-1.27q.317,2.779.635,5.24.238,2.064.437,4.247t.2,3.374v17.228H299.7V-535.052H319.39L322.8-523.54h1.111a35.371,35.371,0,0,1,3.811-5.081,23.711,23.711,0,0,1,4.962-4.168,25.623,25.623,0,0,1,6.391-2.858,27.559,27.559,0,0,1,7.939-1.072,26.726,26.726,0,0,1,12.543,2.937,27.069,27.069,0,0,1,9.685,8.733,44.341,44.341,0,0,1,6.271,14.37,79.491,79.491,0,0,1,2.223,19.847,77.7,77.7,0,0,1-2.3,19.967,44.375,44.375,0,0,1-6.47,14.449,27.6,27.6,0,0,1-9.923,8.772A27.444,27.444,0,0,1,346.381-444.705Zm-7.542-72.642a14.712,14.712,0,0,0-6.867,1.469,11.4,11.4,0,0,0-4.565,4.406,22,22,0,0,0-2.54,7.423,71.515,71.515,0,0,0-.953,10.44v2.62a77.359,77.359,0,0,0,.754,11.432,27.007,27.007,0,0,0,2.5,8.376,12.511,12.511,0,0,0,4.644,5.121A13.7,13.7,0,0,0,339-464.315q7.224,0,10.6-6.867t3.374-19.967q0-13.1-3.374-19.649A11.287,11.287,0,0,0,338.839-517.347ZM442.26-446.293l-3.255-11.353h-1.27a23.42,23.42,0,0,1-4.723,5.835,26.663,26.663,0,0,1-5.994,4.01,29.125,29.125,0,0,1-6.907,2.342,36.814,36.814,0,0,1-7.462.754,35.557,35.557,0,0,1-11.828-1.866,23.027,23.027,0,0,1-9.129-5.835,26.58,26.58,0,0,1-5.875-10.082,46.148,46.148,0,0,1-2.064-14.687v-57.876h24.212v51.842q0,9.606,2.9,14.41t9.248,4.8a15.2,15.2,0,0,0,7.938-1.905,13.3,13.3,0,0,0,5.041-5.637,30.371,30.371,0,0,0,2.659-9.209,88.278,88.278,0,0,0,.794-12.544v-41.759h24.212v88.758ZM470.821-558a13.692,13.692,0,0,1,1.032-5.676,9.55,9.55,0,0,1,2.818-3.652,10.624,10.624,0,0,1,4.207-1.945,22.82,22.82,0,0,1,5.12-.556,22.3,22.3,0,0,1,5.081.556,10.624,10.624,0,0,1,4.168,1.945,9.9,9.9,0,0,1,2.858,3.652A13.248,13.248,0,0,1,497.177-558a13.307,13.307,0,0,1-1.072,5.637,9.826,9.826,0,0,1-2.858,3.692,11.065,11.065,0,0,1-4.168,1.985,20.9,20.9,0,0,1-5.081.6,21.392,21.392,0,0,1-5.12-.6,11.055,11.055,0,0,1-4.207-1.985,9.486,9.486,0,0,1-2.818-3.692A13.753,13.753,0,0,1,470.821-558Zm25.245,111.7H471.853v-88.758h24.213Z" transform="translate(220.1 822.281)"/>
  </g>
</svg>
